<svg width="24" height="20" viewBox="0 0 24 20" fill="none" xmlns="http://www.w3.org/2000/svg">
<path d="M24 5.5296V15.3C24.0001 16.2962 23.6189 17.2546 22.9348 17.9787C22.2507 18.7028 21.3154 19.1376 20.3208 19.194L20.1 19.2H3.9C2.90384 19.2001 1.94541 18.8189 1.22132 18.1348C0.49724 17.4507 0.0623984 16.5154 0.00600014 15.5208L0 15.3V5.5296L11.5824 11.5968C11.7113 11.6643 11.8545 11.6995 12 11.6995C12.1455 11.6995 12.2887 11.6643 12.4176 11.5968L24 5.5296ZM3.9 2.83261e-08H20.1C21.0667 -0.000116418 21.999 0.358795 22.716 1.00712C23.4331 1.65545 23.8838 2.54698 23.9808 3.5088L12 9.7848L0.0192 3.5088C0.112228 2.58517 0.53166 1.72502 1.2021 1.08296C1.87254 0.44089 2.75002 0.0590244 3.6768 0.00600017L3.9 2.83261e-08H20.1H3.9Z" fill="#FF615F"/>
</svg>
