<svg width="24" height="24" viewBox="0 0 24 24" fill="none" xmlns="http://www.w3.org/2000/svg">
<path d="M1.11879 3.79218L4.22068 0.693194C4.4395 0.473421 4.69957 0.299046 4.98598 0.180086C5.27238 0.0611262 5.57946 -7.43278e-05 5.88959 6.77452e-08C6.52162 6.77452e-08 7.11579 0.247569 7.56141 0.693194L10.8992 4.03101C11.119 4.24982 11.2934 4.5099 11.4123 4.7963C11.5313 5.0827 11.5925 5.38979 11.5924 5.69991C11.5924 6.33194 11.3448 6.92611 10.8992 7.37173L8.45848 9.81247C9.02981 11.0718 9.82413 12.2174 10.8031 13.194C11.7796 14.1753 12.9251 14.9725 14.1846 15.5473L16.6254 13.1066C16.8442 12.8868 17.1042 12.7125 17.3906 12.5935C17.677 12.4745 17.9841 12.4133 18.2943 12.4134C18.9263 12.4134 19.5205 12.661 19.9661 13.1066L23.3068 16.4415C23.5268 16.6607 23.7014 16.9213 23.8203 17.2082C23.9393 17.4951 24.0004 17.8027 24 18.1133C24 18.7453 23.7524 19.3395 23.3068 19.7851L20.2107 22.8812C19.5001 23.5948 18.5185 23.9996 17.5108 23.9996C17.2982 23.9996 17.0943 23.9822 16.8933 23.9472C12.9672 23.3006 9.07304 21.2123 5.93037 18.0725C2.79061 14.9357 0.705202 11.0445 0.0498734 7.10669C-0.148182 5.90379 0.250841 4.66595 1.11879 3.79218Z" fill="#FF615F"/>
</svg>
