<svg width="151" height="150" viewBox="0 0 151 150" fill="none" xmlns="http://www.w3.org/2000/svg">
<g clip-path="url(#clip0_1301_2263)">
<path fill-rule="evenodd" clip-rule="evenodd" d="M110.141 10.1159L139.887 39.8599C144.215 44.0697 147.326 49.371 148.889 55.2033C150.452 61.0355 150.409 67.1818 148.766 72.9919L137.877 113.625C136.395 119.477 133.358 124.821 129.089 129.09C124.82 133.358 119.477 136.394 113.624 137.876L72.9951 148.763C67.1859 150.406 61.0406 150.449 55.209 148.887C49.3774 147.324 44.0765 144.215 39.8672 139.887L10.1211 110.143C5.79182 105.934 2.68041 100.633 1.1172 94.8016C-0.446009 88.9696 -0.402738 82.8236 1.24122 77.0139L12.1299 36.3779C13.6106 30.5254 16.6456 25.182 20.9141 20.9131C25.1825 16.6441 30.5257 13.6083 36.3779 12.1269L77.0108 1.23988C82.8203 -0.403888 88.9659 -0.446816 94.7979 1.11564C100.63 2.6781 105.931 5.78784 110.141 10.1159V10.1159Z" fill="url(#paint0_linear_1301_2263)"/>
</g>
<defs>
<linearGradient id="paint0_linear_1301_2263" x1="-0.0242958" y1="-0.0253906" x2="162.588" y2="15.1102" gradientUnits="userSpaceOnUse">
<stop stop-color="#F78D6A"/>
<stop offset="1" stop-color="#FF4A76"/>
</linearGradient>
<clipPath id="clip0_1301_2263">
<rect width="150.005" height="150" fill="white"/>
</clipPath>
</defs>
</svg>
